<?xml version="1.0" encoding="utf-8"?>
<!-- Generator: Adobe Illustrator 14.0.0, SVG Export Plug-In . SVG Version: 6.00 Build 43363)  -->
<!DOCTYPE svg PUBLIC "-//W3C//DTD SVG 1.1//EN" "http://www.w3.org/Graphics/SVG/1.1/DTD/svg11.dtd" [
    <!ENTITY st0 "fill:#828487;">
    <!ENTITY st1 "fill:#1A1A1A;">
    <!ENTITY st2 "fill:#1A1C1C;">
    <!ENTITY st3 "fill:#511807;">
    <!ENTITY st4 "fill:url(#Metallic_shield_3_);">
    <!ENTITY st5 "fill:url(#Plastic_jacket_3_);">
    <!ENTITY st6 "fill:url(#Centre_core_1_);">
    <!ENTITY st7 "fill:#602C1D;">
    <!ENTITY st8 "fill:none;stroke:#000000;stroke-width:2;">
    <!ENTITY st9 "fill:url(#Dielectric_insulator_3_);">
]>
<svg version="1.1" id="Koaxialkabel_Schnittmodell" xmlns="http://www.w3.org/2000/svg" width="200" height="200" viewBox="0 0 200 200">
  <title>Coaxial cable cutaway</title>
  <desc>For more information see: http://commons.wikimedia.org/wiki/File:Coaxial_cable_cutaway_new.svg</desc>
  <path id="Plastic_jacket_2_" d="M68.224,60.653L-47.02,5.479l-22.843,45.814l114.666,58.521c0.373,0.187,12.238,6.646,22.998-2.849
    c11.394-10.053,12.971-22.123,12.976-25.003C80.795,72.957,74.782,63.929,68.224,60.653z"/>
  <linearGradient id="Plastic_jacket_3_" gradientUnits="userSpaceOnUse" x1="408.5303" y1="-320.6079" x2="379.8849" y2="-376.6346" gradientTransform="matrix(1 0 0 -1 -395.1992 -291.9805)">
    <stop offset="0.0178" stop-color="#000000"/>
    <stop offset="0.1822" stop-color="#1A1A1A"/>
    <stop offset="0.2711" stop-color="#4F4E4F"/>
    <stop offset="0.48" stop-color="#000000"/>
    <stop offset="1" stop-color="#000000"/>
  </linearGradient>
  <path id="Plastic_jacket_1_" style="&st5;" d="M-44.224-0.129L-72.66,56.906l114.743,56.812c-8.165-4.079-10.346-16.991-10.326-28.202
    c0.007-3.587,3.025-13.152,12.66-22.788c7.525-7.526,26.103-6.046,26.103-6.046L-44.224-0.129z"/>
  <path id="Plastic_jacket" style="&st1;" d="M56.358,54.591c-1.396,0.214-2.768,0.54-4.108,0.964
    c-13.423,4.241-23.745,18.539-23.773,33.907c-0.006,3.395,0.498,6.578,1.42,9.488c3.668,11.577,14.067,18.737,26.347,16.856
    c1.678-0.259,3.318-0.682,4.915-1.24l-9.177-4.584c-5.158-0.309-9.678-2.662-12.902-6.445c-3.211-3.766-5.137-8.942-5.126-14.914
    c0.025-13.58,10.049-26.12,22.394-28.012c2.076-0.318,4.083-0.308,5.989-0.017c3.857,0.587,7.291,2.346,10.002,4.997l10.107,5.05
    C78.557,59.537,68.352,52.754,56.358,54.591z"/>
  <path id="Metallic_shield_2_" style="&st3;" d="M112.691,89.672L68.048,70.464l-22.788,31.79l49.496,25.07
    c0.286,0.143,9.373,5.091,17.615-2.182c8.727-7.699,9.934-16.943,9.938-19.149C122.32,99.095,117.715,92.181,112.691,89.672z"/>
  <linearGradient id="Metallic_shield_3_" gradientUnits="userSpaceOnUse" x1="476.7539" y1="-362.332" x2="454.5666" y2="-405.7276" gradientTransform="matrix(1 0 0 -1 -395.1992 -291.9805)">
    <stop offset="0" stop-color="#511807"/>
    <stop offset="0.2267" stop-color="#E2AE9F"/>
    <stop offset="0.32" stop-color="#A47062"/>
    <stop offset="1" stop-color="#511807"/>
  </linearGradient>
  <path id="Metallic_shield_1_" style="&st4;" d="M82.445,70.641l-10.107-5.05l-10.002-4.997
    c-1.906-0.291-3.913-0.301-5.989,0.017c-12.345,1.892-22.369,14.432-22.394,28.012c-0.011,5.972,1.916,11.148,5.126,14.914
    l12.902,6.445l9.177,4.584l31.514,15.744c-6.253-3.123-7.925-13.013-7.907-21.598c0.004-2.748,2.315-10.074,9.695-17.454
    c5.764-5.764,19.991-4.63,19.991-4.63L82.445,70.641z"/>
  <path id="Metallic_shield" style="&st7;" d="M103.604,85.029c11.769-1.804,21.289,7.23,21.267,20.177
    c-0.024,12.946-9.585,24.901-21.354,26.706c-11.768,1.803-21.29-7.23-21.266-20.178C82.275,98.79,91.835,86.832,103.604,85.029z
     M103.525,127.299c9.455-1.447,17.134-11.052,17.152-21.449c0.02-10.4-7.628-17.657-17.082-16.208
    c-9.456,1.449-17.133,11.054-17.152,21.455C86.427,121.491,94.071,128.747,103.525,127.299"/>
  <path id="Dielectric_insulator_2_" style="&st2;" d="M146.645,111.893l-34.072-14.659l-17.391,24.262l37.773,19.133
    c0.219,0.109,7.151,3.885,13.442-1.666c6.66-5.876,7.582-12.929,7.586-14.613C153.992,119.084,150.479,113.809,146.645,111.893z"/>
  <linearGradient id="Dielectric_insulator_3_" gradientUnits="userSpaceOnUse" x1="518.0791" y1="-389.1304" x2="501.1469" y2="-422.2477" gradientTransform="matrix(1 0 0 -1 -395.1992 -291.9805)">
    <stop offset="0" stop-color="#88888C"/>
    <stop offset="0.2267" stop-color="#FFFFFF"/>
    <stop offset="0.32" stop-color="#EDEDED"/>
    <stop offset="0.88" stop-color="#BCBCBE"/>
    <stop offset="1" stop-color="#808083"/>
  </linearGradient>
  <path id="Dielectric_insulator_1_" style="&st9;" d="M123.559,97.368l-7.713-3.854l-7.634-3.813c-1.455-0.221-2.985-0.229-4.571,0.013
    c-9.42,1.443-17.071,11.015-17.09,21.379c-0.008,4.558,1.462,8.507,3.912,11.382l9.847,4.92l7.004,3.498l24.051,12.016
    c-4.772-2.383-6.049-9.932-6.035-16.483c0.004-2.097,1.768-7.688,7.398-13.319c4.398-4.397,15.258-3.532,15.258-3.532
    L123.559,97.368z"/>
  <path id="Dielectric_insulator" style="&st0;" d="M139.708,108.35c8.979-1.375,16.248,5.52,16.229,15.399
    c-0.02,9.88-7.315,19.005-16.297,20.38c-8.981,1.378-16.248-5.518-16.229-15.396C123.43,118.852,130.727,109.727,139.708,108.35z
     M139.658,134.967c4.384-0.672,7.943-5.123,7.951-9.943c0.011-4.82-3.537-8.186-7.92-7.514c-4.381,0.672-7.939,5.124-7.949,9.945
    C131.73,132.275,135.275,135.639,139.658,134.967"/>
  <linearGradient id="Centre_core_1_" gradientUnits="userSpaceOnUse" x1="601.5635" y1="-442.1743" x2="593.8211" y2="-457.3174" gradientTransform="matrix(1 0 0 -1 -395.1992 -291.9805)">
    <stop offset="0" stop-color="#511807"/>
    <stop offset="0.2267" stop-color="#E2AE9F"/>
    <stop offset="0.32" stop-color="#A47062"/>
    <stop offset="1" stop-color="#511807"/>
  </linearGradient>
  <path id="Centre_core" style="&st6;" d="M140.833,117.486c-0.64-0.096-1.313-0.1-2.008,0.008
    c-4.14,0.633-7.501,4.83-7.509,9.375c-0.004,1.999,0.642,3.73,1.719,4.99l136.076,68.012l5.211-15.121L140.833,117.486z"/>
  <path id="Linien" style="&st8;" d="M67.129,32.113L46.542,45.728 M150.475,62.994l-30.217,39.515 M34.919,149.494l30.881-49.31
     M138.188,179.877l35.199-33.537"/>
  <path d="M132.999,185.478h-0.036l-2.232,1.062l-0.45-2.052l3.115-1.44h2.251v11.703h-2.647V185.478z"/>
  <path d="M151.774,59.25v-1.656l1.494-1.351c2.575-2.305,3.817-3.619,3.835-4.987c0-0.955-0.558-1.711-1.908-1.711
    c-1.009,0-1.891,0.504-2.503,0.955l-0.774-1.945c0.864-0.666,2.251-1.206,3.817-1.206c2.665,0,4.105,1.548,4.105,3.655
    c0,1.981-1.404,3.547-3.115,5.06l-1.08,0.9V57h4.429v2.25H151.774z"/>
  <path d="M26.992,161.317c0.486,0.27,1.603,0.72,2.719,0.72c1.423,0,2.143-0.684,2.143-1.548c0-1.171-1.152-1.692-2.359-1.692
    h-1.116v-1.963h1.08c0.918,0,2.071-0.36,2.071-1.351c0-0.702-0.558-1.225-1.729-1.225c-0.955,0-1.962,0.414-2.431,0.702
    l-0.558-1.98c0.702-0.45,2.088-0.882,3.619-0.882c2.484,0,3.871,1.314,3.871,2.917c0,1.242-0.702,2.232-2.143,2.719v0.036
    c1.404,0.252,2.539,1.314,2.539,2.862c0,2.053-1.819,3.565-4.79,3.565c-1.512,0-2.791-0.396-3.475-0.811L26.992,161.317z"/>
  <path d="M73.1,27.5v-2.791h-5.186v-1.782l4.411-7.13h3.367v6.86h1.387v2.052h-1.387V27.5H73.1z M73.1,22.657v-2.593
    c0-0.703,0.036-1.422,0.072-2.179h-0.054c-0.378,0.756-0.702,1.44-1.098,2.179l-1.549,2.557l-0.018,0.036H73.1z"/>
</svg>